<svg xmlns="http://www.w3.org/2000/svg" viewBox="0 0 512 512"><path fill="#050608" d="M256 176a80 80 0 1 0 0 160 80 80 0 1 0 0-160zm220 80c0-14-1-28-4-41l39-30c5-4 7-11 4-17l-30-52c-3-6-10-9-16-7l-47 19c-20-18-43-32-68-41l-7-50c-1-7-7-12-14-12h-60c-7 0-13 5-14 12l-7 50c-25 9-48 23-68 41l-47-19c-6-2-13 1-16 7l-30 52c-3 6-1 13 4 17l39 30c-3 13-4 27-4 41s1 28 4 41l-39 30c-5 4-7 11-4 17l30 52c3 6 10 9 16 7l47-19c20 18 43 32 68 41l7 50c1 7 7 12 14 12h60c7 0 13-5 14-12l7-50c25-9 48-23 68-41l47 19c6 2 13-1 16-7l30-52c3-6 1-13-4-17l-39-30c3-13 4-27 4-41zM256 304a48 48 0 1 1 0-96 48 48 0 0 1 0 96z"/></svg>
